<svg width="194" height="33" viewBox="0 0 194 33" fill="none" xmlns="http://www.w3.org/2000/svg">
<circle cx="80.5459" cy="16.1088" r="16.1089" transform="rotate(-180 80.5459 16.1088)" fill="#FB6111"/>
<circle cx="48.3263" cy="16.1088" r="16.1089" transform="rotate(-180 48.3263 16.1088)" fill="#FC9058"/>
<circle cx="16.1089" cy="16.1088" r="16.1089" transform="rotate(-180 16.1089 16.1088)" fill="#FDB088"/>
<path fill-rule="evenodd" clip-rule="evenodd" d="M166.076 0V8.92131C165.967 8.29857 165.783 7.72771 165.523 7.20872C164.98 6.12116 164.149 5.29079 163.032 4.71761C161.93 4.14443 160.578 3.85785 158.976 3.85785C157.521 3.85785 156.235 4.10769 155.118 4.60738C154.016 5.09238 153.149 5.80518 152.517 6.74577C152.191 7.23462 151.951 7.78287 151.797 8.39052C151.713 7.58588 151.533 6.89802 151.258 6.32691C150.861 5.48919 150.288 4.87193 149.538 4.47511C148.803 4.0636 147.922 3.85785 146.893 3.85785C145.908 3.85785 145.034 4.04156 144.269 4.40898C143.505 4.7617 142.881 5.37897 142.396 6.26078H142.175C141.808 5.43775 141.264 4.83519 140.544 4.45307C139.824 4.05625 138.979 3.85785 138.009 3.85785C137.097 3.85785 136.296 4.02686 135.606 4.36489C134.93 4.70291 134.4 5.19526 134.018 5.84192H133.798L133.577 4.0783H128.926V16.0709H133.798V9.89824C133.798 9.44264 133.886 9.03848 134.062 8.68575C134.239 8.31833 134.489 8.03174 134.812 7.82599C135.15 7.60554 135.562 7.49531 136.047 7.49531C136.576 7.49531 136.98 7.61288 137.259 7.84803C137.538 8.06849 137.722 8.37712 137.81 8.77393C137.913 9.15605 137.964 9.59696 137.964 10.0966V16.0709H142.814V9.89824C142.814 9.42794 142.903 9.01643 143.079 8.66371C143.255 8.29629 143.513 8.0097 143.851 7.80394C144.189 7.59819 144.6 7.49531 145.085 7.49531C145.599 7.49531 145.989 7.61288 146.253 7.84803C146.533 8.06849 146.724 8.37712 146.827 8.77393C146.93 9.17075 146.981 9.62635 146.981 10.1407V16.0709H151.853V12.0858C152.003 12.5878 152.217 13.049 152.495 13.4696C153.112 14.3808 153.972 15.0789 155.074 15.5639C156.191 16.0489 157.506 16.2914 159.02 16.2914C160.343 16.2914 161.526 16.1223 162.569 15.7843C163.613 15.4316 164.458 14.9393 165.105 14.3073C165.578 13.8445 165.902 13.3304 166.076 12.7652V16.071H170.948V12.9406L172.271 11.7501L172.954 12.7642L175.423 16.071H181.464L175.798 8.88423L181.375 4.07837H175.313L172.381 6.74584L170.948 8.13469V0H166.076ZM156.463 11.1548H166.076V12.1248H161.621C161.489 12.404 161.195 12.6392 160.74 12.8303C160.284 13.0066 159.755 13.0948 159.152 13.0948C158.594 13.0948 158.116 13.0213 157.719 12.8743C157.323 12.7127 157.014 12.4849 156.794 12.1909C156.588 11.897 156.478 11.5516 156.463 11.1548ZM161.353 8.61962H156.381C156.463 8.31917 156.593 8.06197 156.772 7.84803C157.007 7.58349 157.308 7.39243 157.675 7.27486C158.043 7.14259 158.469 7.07645 158.954 7.07645C159.498 7.07645 159.939 7.14993 160.277 7.2969C160.629 7.44387 160.894 7.64963 161.07 7.91417C161.211 8.1258 161.306 8.36095 161.353 8.61962Z" fill="white"/>
<path fill-rule="evenodd" clip-rule="evenodd" d="M184.907 16.2915C184.04 16.2915 183.246 16.1518 182.526 15.8726C181.821 15.5787 181.211 15.1598 180.696 14.616C180.182 14.0722 179.785 13.4182 179.506 12.654C179.227 11.8898 179.087 11.0374 179.087 10.0968C179.087 8.81813 179.33 7.71587 179.815 6.78997C180.3 5.86407 180.976 5.15127 181.843 4.65158C182.725 4.15189 183.746 3.90204 184.907 3.90204C185.627 3.90204 186.252 3.97553 186.781 4.12249C187.31 4.26946 187.758 4.47522 188.126 4.73976C188.508 4.98961 188.809 5.29089 189.029 5.64362H189.206L189.338 4.0784H193.968V16.071H189.096V14.5499H188.919C188.552 15.0937 188.008 15.5199 187.288 15.8285C186.568 16.1371 185.774 16.2915 184.907 16.2915ZM186.472 12.654C187.016 12.654 187.479 12.5511 187.861 12.3454C188.258 12.1396 188.559 11.853 188.765 11.4856C188.971 11.1182 189.074 10.6993 189.074 10.229V9.96448C189.074 9.47949 188.971 9.06063 188.765 8.7079C188.559 8.34048 188.258 8.05389 187.861 7.84814C187.479 7.64238 187.016 7.53951 186.472 7.53951C185.987 7.53951 185.554 7.63504 185.172 7.82609C184.804 8.01715 184.51 8.30374 184.29 8.68586C184.084 9.06798 183.981 9.53827 183.981 10.0968C183.981 10.6552 184.084 11.1255 184.29 11.5076C184.495 11.8898 184.782 12.1764 185.15 12.3674C185.532 12.5585 185.973 12.654 186.472 12.654Z" fill="white"/>
<path fill-rule="evenodd" clip-rule="evenodd" d="M103.493 31.6728C104.037 31.908 104.669 32.0255 105.389 32.0255H109.401V28.9945C109.479 29.1421 109.564 29.2853 109.655 29.4241C110.273 30.3353 111.132 31.0334 112.235 31.5184C113.352 32.0034 114.667 32.2459 116.181 32.2459C117.503 32.2459 118.686 32.0769 119.73 31.7389C120.773 31.3861 121.619 30.8938 122.265 30.2618C122.737 29.8003 123.061 29.2878 123.235 28.7243C123.512 29.439 123.894 30.0544 124.382 30.5706C124.896 31.1143 125.506 31.5332 126.212 31.8271C126.932 32.1064 127.726 32.246 128.593 32.246C129.46 32.246 130.253 32.0917 130.974 31.7831C131.694 31.4744 132.238 31.0482 132.605 30.5044H132.781V32.0256H137.653V20.0329H133.024L132.892 21.5982H132.715C132.495 21.2454 132.193 20.9441 131.811 20.6943C131.444 20.4298 130.996 20.224 130.467 20.077C129.937 19.9301 129.313 19.8566 128.593 19.8566C127.432 19.8566 126.41 20.1064 125.528 20.6061C124.661 21.1058 123.985 21.8186 123.5 22.7445C123.298 23.13 123.138 23.546 123.021 23.9926C122.928 23.7028 122.816 23.4264 122.684 23.1633C122.14 22.0757 121.31 21.2453 120.193 20.6721C119.091 20.099 117.739 19.8124 116.137 19.8124C114.682 19.8124 113.396 20.0622 112.279 20.5619C111.176 21.0469 110.309 21.7597 109.677 22.7003C109.577 22.8507 109.485 23.0068 109.401 23.1684V20.0329H106.557V16.3734L101.773 17.2773V20.0329H99.7231V23.6704H101.773V28.7187C101.773 29.4683 101.92 30.0856 102.214 30.5705C102.523 31.0555 102.949 31.423 103.493 31.6728ZM109.173 23.6704H106.557V27.1094C106.557 27.4181 106.623 27.6312 106.756 27.7488C106.902 27.8663 107.138 27.9251 107.461 27.9251H108.98C108.828 27.3709 108.751 26.7683 108.751 26.1173C108.751 25.2046 108.892 24.3889 109.173 23.6704ZM113.623 27.1094H122.836C122.878 27.4458 122.941 27.7691 123.024 28.0793H118.782C118.65 28.3586 118.356 28.5937 117.9 28.7848C117.445 28.9612 116.916 29.0493 116.313 29.0493C115.754 29.0493 115.277 28.9759 114.88 28.8289C114.483 28.6672 114.175 28.4394 113.954 28.1455C113.748 27.8515 113.638 27.5062 113.623 27.1094ZM118.513 24.5742H113.541C113.624 24.2737 113.754 24.0165 113.932 23.8026C114.167 23.538 114.469 23.347 114.836 23.2294C115.203 23.0971 115.63 23.031 116.115 23.031C116.658 23.031 117.099 23.1045 117.437 23.2514C117.79 23.3984 118.055 23.6042 118.231 23.8687C118.372 24.0803 118.466 24.3155 118.513 24.5742ZM131.547 28.2999C131.165 28.5057 130.702 28.6085 130.158 28.6085C129.658 28.6085 129.217 28.513 128.835 28.322C128.468 28.1309 128.181 27.8443 127.975 27.4622C127.77 27.0801 127.667 26.6098 127.667 26.0513C127.667 25.4928 127.77 25.0225 127.975 24.6404C128.196 24.2583 128.49 23.9717 128.857 23.7806C129.239 23.5896 129.673 23.494 130.158 23.494C130.702 23.494 131.165 23.5969 131.547 23.8027C131.944 24.0084 132.245 24.295 132.451 24.6624C132.656 25.0152 132.759 25.434 132.759 25.919V26.1836C132.759 26.6539 132.656 27.0727 132.451 27.4401C132.245 27.8076 131.944 28.0941 131.547 28.2999Z" fill="white"/>
<path d="M138.012 20.0328V32.0254H142.884V25.8528C142.884 25.3972 142.972 24.993 143.148 24.6403C143.325 24.2729 143.575 23.9863 143.898 23.7805C144.236 23.5601 144.647 23.4498 145.132 23.4498C145.662 23.4498 146.066 23.5674 146.345 23.8026C146.624 24.023 146.808 24.3317 146.896 24.7285C146.999 25.1106 147.05 25.5515 147.05 26.0512V32.0254H151.9V25.8528C151.9 25.3825 151.988 24.971 152.165 24.6182C152.341 24.2508 152.598 23.9642 152.936 23.7585C153.274 23.5527 153.686 23.4498 154.171 23.4498C154.685 23.4498 155.075 23.5674 155.339 23.8026C155.619 24.023 155.81 24.3317 155.913 24.7285C156.015 25.1253 156.067 25.5809 156.067 26.0953V32.0254H160.939V25.478C160.939 24.17 160.74 23.1045 160.344 22.2815C159.947 21.4437 159.374 20.8265 158.624 20.4297C157.889 20.0181 157.007 19.8124 155.979 19.8124C154.994 19.8124 154.12 19.9961 153.355 20.3635C152.591 20.7162 151.966 21.3335 151.481 22.2153H151.261C150.894 21.3923 150.35 20.7897 149.63 20.4076C148.91 20.0108 148.064 19.8124 147.094 19.8124C146.183 19.8124 145.382 19.9814 144.692 20.3194C144.015 20.6574 143.486 21.1498 143.104 21.7965H142.884L142.663 20.0328H138.012Z" fill="white"/>
<path d="M119.436 16.2914C118.392 16.2914 117.481 16.1151 116.702 15.7623C115.923 15.4096 115.321 14.8218 114.894 13.9987C114.468 13.1757 114.255 12.0734 114.255 10.6919V5.17652L109.952 8.88423L115.618 16.071H109.577L107.108 12.7642L106.425 11.7501L105.102 12.9406V16.071H100.23V0H105.102V8.13469L106.535 6.74584L109.467 4.07837L119.127 4.07837V9.81013C119.127 10.3539 119.178 10.8463 119.281 11.2872C119.399 11.7134 119.605 12.0514 119.899 12.3012C120.207 12.5364 120.633 12.654 121.177 12.654C121.706 12.654 122.155 12.5437 122.522 12.3233C122.889 12.1028 123.169 11.7942 123.36 11.3974C123.565 11.0006 123.668 10.5523 123.668 10.0526V4.07837H128.54V16.071H123.867L123.668 14.3294H123.47C123.132 14.9173 122.588 15.3949 121.839 15.7623C121.104 16.1151 120.303 16.2914 119.436 16.2914Z" fill="white"/>
</svg>
